<svg id="Layer_1" data-name="Layer 1" xmlns="http://www.w3.org/2000/svg" viewBox="0 0 123.46 26.64"><defs><style>.cls-1{font-size:14.32px;font-family:Humanist777BT-BlackCondensedB, Humnst777 BlkCn BT;font-weight:800;}.cls-1,.cls-3{fill:#1c285a;}.cls-2{letter-spacing:-0.06em;}</style></defs><text class="cls-1" transform="translate(42.34 17.6)">SAL<tspan class="cls-2" x="22.59" y="0">L</tspan><tspan x="28.29" y="0">Y SWEET</tspan></text><path class="cls-3" d="M17.7,18a7,7,0,0,1-1.07,5.76,8.09,8.09,0,0,1-4.54,3.14,6.57,6.57,0,0,1-3.4.25,5.22,5.22,0,0,1-1.37-.48,6.41,6.41,0,0,1-3.27-6.4,5.81,5.81,0,0,1,1-2.39,4.84,4.84,0,0,1,2.24-1.69,4.26,4.26,0,0,1,1.51-.27,4.15,4.15,0,0,1,4,3.21c.44,2.23-.55,4.2-2,4.73a3.22,3.22,0,0,1-2.46-.25,3.71,3.71,0,0,0,3.2-1.53,3.51,3.51,0,0,0-2.1-5.25,3.24,3.24,0,0,0-2.08.3,3.43,3.43,0,0,0-1.56,1.48,3.23,3.23,0,0,0-.37,1.57,4.45,4.45,0,0,0,.36,2.14,4.73,4.73,0,0,0,7.68,1.29,4.82,4.82,0,0,0,1.27-3.23c0-1.59-.59-3.08-3.63-4.21-1.94-.51-4.08-.79-4.17-3.41a2.75,2.75,0,0,1,1.45-2.48,2.8,2.8,0,0,0,.34,1.15c1,1.78,3.31,1.29,5.81,2.77A7.16,7.16,0,0,1,17.7,18Z" transform="translate(-3.99 -0.61)"/><circle class="cls-3" cx="4.53" cy="19.48" r="2.52"/><circle class="cls-3" cx="9.19" cy="5.48" r="2.15"/><path class="cls-3" d="M12.89,1.68A5.76,5.76,0,0,0,7.56,7.4c0,3,3.76,5,6.72,5s4.61-2.7,4.61-5.66S15.94,1.51,12.89,1.68Zm.89,7.55A3.67,3.67,0,0,1,10,6.1a2.64,2.64,0,0,1,2.8-3,3.3,3.3,0,0,1,3.33,3.11C16.2,7.87,15.59,9.16,13.78,9.23Z" transform="translate(-3.99 -0.61)"/><path class="cls-3" d="M42.37,9.73a8.5,8.5,0,0,1-2.22-.34c.11-.81.22-1.6.33-2.38a1.22,1.22,0,0,0-.29-.91,1.22,1.22,0,0,0-2,.74.83.83,0,0,1-.72.76.74.74,0,0,1-.57-.22,1.14,1.14,0,0,1-.1-.35,1.28,1.28,0,0,1,0-.3c.18-1.46.35-2.92.52-4.39l-1.87.59L35,7a3.41,3.41,0,0,1-.54,1.29,1.12,1.12,0,0,1-.65.52.38.38,0,0,1-.31,0,.52.52,0,0,1-.21-.53L34.13.61A6.32,6.32,0,0,1,33,1.16a6.32,6.32,0,0,1-1.07.28l.41.4-.72,6.54a1.81,1.81,0,0,1-.4,1,.7.7,0,0,1-.53.35.5.5,0,0,1-.34-.18.48.48,0,0,1-.07-.37L31,1.23a3.57,3.57,0,0,1-1.28.8,3.55,3.55,0,0,1-1,.22l.37.5L28.45,9.3a1.73,1.73,0,0,1-.35.76.91.91,0,0,1-.59.43.4.4,0,0,1-.28-.08A.5.5,0,0,1,27.1,10q.38-3.79.74-7.59a3.6,3.6,0,0,1-1.07.56,3.86,3.86,0,0,1-1.37.2l.58.48L25.29,10a2.08,2.08,0,0,1-.31.69c-.12.15-.46.62-.76.53s-.3-.39-.32-.48c.19-1.77.37-3.53.56-5.29a3,3,0,0,1-.87.37,3.07,3.07,0,0,1-.8.07c0,.21-.05.42-.07.63a1.58,1.58,0,0,0-.88-.29c-1.16,0-2.36,1.5-2.91,3.77-.3,2,.55,3.47,1.35,3.57.63.08,1.39-.65,1.87-1.63a1.79,1.79,0,0,0,1.11,1,2,2,0,0,0,2.09-1.71,1.74,1.74,0,0,0,1.06,1,2,2,0,0,0,2.15-1.68,1.79,1.79,0,0,0,1.07.9,2.08,2.08,0,0,0,2.13-1.73,1.75,1.75,0,0,0,1.09.94c.83.15,1.91-.67,2.2-2.13a1.94,1.94,0,0,0,1.23.86,1.24,1.24,0,0,0,.43,0l.24,0a1,1,0,0,1-.24,0l-.4.11a5.6,5.6,0,0,0-.84.35,2.3,2.3,0,0,0-1.25,1.39,2.19,2.19,0,0,0,0,1.14l-.84.84a5.5,5.5,0,0,0-.73,1.31,5.4,5.4,0,0,0-.36,1.68,5.63,5.63,0,0,1-1,1.44,5.73,5.73,0,0,1-1.12.91,1,1,0,0,1-.89,0,1,1,0,0,1-.46-.63,4.18,4.18,0,0,0,2.27-1.8,4.09,4.09,0,0,0,.54-1.76A1.46,1.46,0,0,0,31,13.28a1.51,1.51,0,0,0-1.36-.12,4.37,4.37,0,0,0-1.15.81,4.71,4.71,0,0,0-1.24,2.15,1.45,1.45,0,0,1-.44-.39,1.39,1.39,0,0,1-.28-.82,1.74,1.74,0,0,0-.2-.78,1.9,1.9,0,0,0-.28-.42.76.76,0,0,0-.41-.13.82.82,0,0,0-.71.52A3.11,3.11,0,0,0,24.62,16a3.16,3.16,0,0,0,.68,1.51,3.08,3.08,0,0,1-.36,1.12,2.93,2.93,0,0,1-.5.69.65.65,0,0,1-.55.09.68.68,0,0,1-.34-.66c.05-.93.1-1.85.16-2.78a2.12,2.12,0,0,0-.28-1.27c-.16-.25-.29-.31-.36-.33a.77.77,0,0,0-.66.18,1.61,1.61,0,0,0-.61,1.12l-.06,3.83a1,1,0,0,1-.15.54,1.08,1.08,0,0,1-.36.36.56.56,0,0,1-.42,0,.59.59,0,0,1-.3-.67l.21-3.11a1.51,1.51,0,0,0-.15-.81,1.4,1.4,0,0,0-.7-.63,2.13,2.13,0,0,0-.93,0,2.45,2.45,0,0,0-1.48,1.17,1,1,0,0,1,1.48.64l-.24,3.59a1.93,1.93,0,0,0,1.08,1.9,2.1,2.1,0,0,0,2.32-2,1.93,1.93,0,0,0,1.21,1.06,2.14,2.14,0,0,0,2.27-1.75l.63-1.93,1,.21a2.09,2.09,0,0,0,1.06,2,2.11,2.11,0,0,0,1.9,0A4.9,4.9,0,0,0,31.37,19a5.13,5.13,0,0,0,.93-2,2.27,2.27,0,0,0,1.51,2.11,2.17,2.17,0,0,0,1.6-.21,4.85,4.85,0,0,0,1.3-1.42,4.79,4.79,0,0,0,.66-2.41c-.9,1.71-2,2.61-2.76,2.36-.15,0-.41-.19-.62-.7a4.26,4.26,0,0,0,2.18-1.72,4.11,4.11,0,0,0,.49-1.15,1.63,1.63,0,0,0-.56-1.77,1.52,1.52,0,0,0-1.19-.23,2.11,2.11,0,0,1,.58-.92,2.16,2.16,0,0,1,1.23-.55h1.52l-.63,5.22a2.45,2.45,0,0,0,.47,1.8,2,2,0,0,0,1.07.73,2.2,2.2,0,0,0,2.2-1c0-.43,0-.85-.05-1.28a2.49,2.49,0,0,1-.19.23c-.14.14-.67.68-1.14.52s-.51-.72-.51-.77c.14-1.68.31-3.4.53-5.16h0s0-.06,0-.09a.28.28,0,0,0,0,.09,6.89,6.89,0,0,0,1.58.33A6.6,6.6,0,0,0,43,11a2.5,2.5,0,0,0,1.36-.41,2.54,2.54,0,0,0,1-1.39A8.5,8.5,0,0,1,42.37,9.73Zm-20.24.89c-.19.82-.67,1.26-1,1.2s-.44-.51-.47-.61A6.41,6.41,0,0,1,20.61,10a6.48,6.48,0,0,1,.18-1.33,1.9,1.9,0,0,1,.39-1,1.73,1.73,0,0,1,.46-.4.74.74,0,0,1,.35,0,.78.78,0,0,1,.45.27ZM29,15.42a5.32,5.32,0,0,1,.42-1.05.76.76,0,0,1,.37-.34.73.73,0,0,1,.41,0,.48.48,0,0,1,.29.22.51.51,0,0,1,0,.45,3.65,3.65,0,0,1-.67,1.24,3.59,3.59,0,0,1-1.07.91A6.36,6.36,0,0,1,29,15.42Zm6.33-2.54a.41.41,0,0,1,.29.21.5.5,0,0,1,0,.45,4.72,4.72,0,0,1-.26.63,3.88,3.88,0,0,1-.41.62,3.93,3.93,0,0,1-1.06.91,5.65,5.65,0,0,1,.21-1.38,6.54,6.54,0,0,1,.41-1.06.86.86,0,0,1,.38-.33A.65.65,0,0,1,35.32,12.88Zm3.06-3.61A6.51,6.51,0,0,0,37,9.34,2.53,2.53,0,0,0,38.58,7.6C38.51,8.16,38.44,8.72,38.38,9.27Z" transform="translate(-3.99 -0.61)"/></svg>